<svg xmlns="http://www.w3.org/2000/svg" viewBox="0 0 200 200">
<defs>
<linearGradient id="lnv" x1="0%" y1="0%" x2="100%" y2="100%">
<stop offset="0%" stop-color="#1a2f5e"/><stop offset="100%" stop-color="#0d1b3a"/>
</linearGradient>
<linearGradient id="lgrn" x1="0%" y1="0%" x2="100%" y2="100%">
<stop offset="0%" stop-color="#22c55e"/><stop offset="100%" stop-color="#15803d"/>
</linearGradient>
</defs>
<rect width="200" height="200" rx="38" fill="url(#lnv)"/>
<rect x="0" y="0" width="200" height="7" rx="3" fill="url(#lgrn)"/>
<rect x="0" y="193" width="200" height="7" rx="3" fill="url(#lgrn)"/>
<rect x="36" y="42" width="13" height="86" rx="3" fill="#fff"/>
<path d="M49 42 Q96 42 96 68 Q96 90 74 94 L49 94" fill="none" stroke="#fff" stroke-width="13" stroke-linecap="round" stroke-linejoin="round"/>
<line x1="73" y1="94" x2="97" y2="128" stroke="#fff" stroke-width="13" stroke-linecap="round"/>
<rect x="108" y="42" width="56" height="12" rx="3" fill="#fff"/>
<rect x="129" y="54" width="13" height="74" rx="3" fill="#fff"/>
<circle cx="100" cy="160" r="26" fill="url(#lgrn)"/>
<path d="M86 153 Q94 144 105 148" fill="none" stroke="#fff" stroke-width="3" stroke-linecap="round"/>
<polygon points="103,143 105,148 100,150" fill="#fff"/>
<path d="M114 167 Q106 176 95 172" fill="none" stroke="#fff" stroke-width="3" stroke-linecap="round"/>
<polygon points="97,177 95,172 100,170" fill="#fff"/>
</svg>